<?xml version="1.0" encoding="UTF-8"?>
<svg id="Layer_2" data-name="Layer 2" xmlns="http://www.w3.org/2000/svg" viewBox="0 0 132.5 134.5">
  <defs>
    <style>
      .cls-1 {
        fill: #ccc;
      }

      .cls-1, .cls-2 {
        stroke-width: 0px;
      }

      .cls-2 {
        fill: #000;
      }

      .cls-3 {
        fill: none;
        stroke: #000;
        stroke-miterlimit: 10;
        stroke-width: 1.96px;
      }
    </style>
  </defs>
  <g id="Layer_1-2" data-name="Layer 1">
    <g>
      <rect class="cls-1" x="32" y="37.5" width="5" height="5"/>
      <rect class="cls-1" x="37" y="42.5" width="5" height="5"/>
      <rect class="cls-1" x="27" y="42.5" width="5" height="5"/>
      <rect class="cls-1" x="37" y="52.5" width="5" height="5"/>
      <rect class="cls-1" x="42" y="57.5" width="5" height="5"/>
      <rect class="cls-1" x="42" y="47.5" width="5" height="5"/>
      <rect class="cls-1" x="52" y="37.5" width="5" height="5"/>
      <rect class="cls-1" x="47" y="42.5" width="5" height="5"/>
      <rect class="cls-1" x="47" y="52.5" width="5" height="5"/>
      <rect class="cls-1" x="52" y="57.5" width="5" height="5"/>
      <rect class="cls-1" x="52" y="47.5" width="5" height="5"/>
      <rect class="cls-1" x="42" y="37.5" width="5" height="5"/>
      <rect class="cls-1" x="47" y="62.5" width="5" height="5"/>
      <rect class="cls-1" x="52" y="67.5" width="5" height="5"/>
      <rect class="cls-1" x="27" y="32.5" width="5" height="5"/>
      <rect class="cls-1" x="47" y="32.5" width="5" height="5"/>
      <rect class="cls-1" x="37" y="32.5" width="5" height="5"/>
      <rect class="cls-1" x="57" y="32.5" width="5" height="5"/>
      <rect class="cls-1" x="62" y="37.5" width="5" height="5"/>
      <rect class="cls-1" x="67" y="42.5" width="5" height="5"/>
      <rect class="cls-1" x="67" y="32.5" width="5" height="5"/>
      <rect class="cls-1" x="57" y="42.5" width="5" height="5"/>
      <rect class="cls-1" x="62" y="47.5" width="5" height="5"/>
      <rect class="cls-1" x="67" y="52.5" width="5" height="5"/>
      <rect class="cls-1" x="72" y="57.5" width="5" height="5"/>
      <rect class="cls-1" x="72" y="47.5" width="5" height="5"/>
      <rect class="cls-1" x="62" y="57.5" width="5" height="5"/>
      <rect class="cls-1" x="77" y="32.5" width="5" height="5"/>
      <rect class="cls-1" x="82" y="37.5" width="5" height="5"/>
      <rect class="cls-1" x="77" y="42.5" width="5" height="5"/>
      <rect class="cls-1" x="77" y="52.5" width="5" height="5"/>
      <rect class="cls-1" x="82" y="57.5" width="5" height="5"/>
      <rect class="cls-1" x="82" y="47.5" width="5" height="5"/>
      <rect class="cls-1" x="72" y="37.5" width="5" height="5"/>
      <rect class="cls-1" x="57" y="52.5" width="5" height="5"/>
      <rect class="cls-1" x="67" y="62.5" width="5" height="5"/>
      <rect class="cls-1" x="57" y="62.5" width="5" height="5"/>
      <rect class="cls-1" x="77" y="62.5" width="5" height="5"/>
      <rect class="cls-1" x="62" y="67.5" width="5" height="5"/>
      <rect class="cls-1" x="67" y="72.5" width="5" height="5"/>
      <rect class="cls-1" x="57" y="72.5" width="5" height="5"/>
      <rect class="cls-1" x="62" y="77.5" width="5" height="5"/>
      <rect class="cls-1" x="67" y="82.5" width="5" height="5"/>
      <rect class="cls-1" x="72" y="87.5" width="5" height="5"/>
      <rect class="cls-1" x="72" y="77.5" width="5" height="5"/>
      <rect class="cls-1" x="82" y="67.5" width="5" height="5"/>
      <rect class="cls-1" x="77" y="72.5" width="5" height="5"/>
      <rect class="cls-1" x="77" y="82.5" width="5" height="5"/>
      <rect class="cls-1" x="82" y="87.5" width="5" height="5"/>
      <rect class="cls-1" x="82" y="77.5" width="5" height="5"/>
      <rect class="cls-1" x="72" y="67.5" width="5" height="5"/>
      <rect class="cls-1" x="77" y="92.5" width="5" height="5"/>
      <rect class="cls-1" x="82" y="97.5" width="5" height="5"/>
      <rect class="cls-1" x="92" y="37.5" width="5" height="5"/>
      <rect class="cls-1" x="97" y="42.5" width="5" height="5"/>
      <rect class="cls-1" x="87" y="42.5" width="5" height="5"/>
      <rect class="cls-1" x="92" y="47.5" width="5" height="5"/>
      <rect class="cls-1" x="97" y="52.5" width="5" height="5"/>
      <rect class="cls-1" x="92" y="57.5" width="5" height="5"/>
      <rect class="cls-1" x="87" y="52.5" width="5" height="5"/>
      <rect class="cls-1" x="97" y="62.5" width="5" height="5"/>
      <rect class="cls-1" x="87" y="62.5" width="5" height="5"/>
      <rect class="cls-1" x="92" y="67.5" width="5" height="5"/>
      <rect class="cls-1" x="97" y="72.5" width="5" height="5"/>
      <rect class="cls-1" x="87" y="72.5" width="5" height="5"/>
      <rect class="cls-1" x="92" y="77.5" width="5" height="5"/>
      <rect class="cls-1" x="97" y="82.5" width="5" height="5"/>
      <rect class="cls-1" x="92" y="87.5" width="5" height="5"/>
      <rect class="cls-1" x="87" y="82.5" width="5" height="5"/>
      <rect class="cls-1" x="97" y="92.5" width="5" height="5"/>
      <rect class="cls-1" x="87" y="92.5" width="5" height="5"/>
      <rect class="cls-1" x="92" y="97.5" width="5" height="5"/>
      <rect class="cls-1" x="87" y="32.5" width="5" height="5"/>
      <rect class="cls-1" x="97" y="32.5" width="5" height="5"/>
      <rect class="cls-1" x="32" y="47.5" width="5" height="5"/>
      <rect class="cls-1" x="22" y="37.5" width="5" height="5"/>
      <rect class="cls-1" x="17" y="32.5" width="5" height="5"/>
      <rect class="cls-1" x="92" y="107.5" width="5" height="5"/>
      <rect class="cls-1" x="87" y="102.5" width="5" height="5"/>
      <rect class="cls-1" x="97" y="102.5" width="5" height="5"/>
      <rect class="cls-1" x="97" y="112.5" width="5" height="5"/>
      <rect class="cls-1" x="52" y="77.5" width="5" height="5" transform="translate(109 160) rotate(180)"/>
      <rect class="cls-1" x="47" y="72.5" width="5" height="5" transform="translate(99 150) rotate(180)"/>
      <rect class="cls-1" x="42" y="67.5" width="5" height="5" transform="translate(89 140) rotate(180)"/>
      <rect class="cls-1" x="37" y="62.5" width="5" height="5" transform="translate(79 130) rotate(180)"/>
      <rect class="cls-1" x="32" y="57.5" width="5" height="5" transform="translate(69 120) rotate(180)"/>
      <rect class="cls-1" x="77" y="102.5" width="5" height="5" transform="translate(159 210) rotate(180)"/>
      <rect class="cls-1" x="72" y="97.5" width="5" height="5" transform="translate(149 200) rotate(180)"/>
      <rect class="cls-1" x="67" y="92.5" width="5" height="5" transform="translate(139 190) rotate(180)"/>
      <rect class="cls-1" x="62" y="87.5" width="5" height="5" transform="translate(129 180) rotate(180)"/>
      <rect class="cls-1" x="57" y="82.5" width="5" height="5" transform="translate(119 170) rotate(180)"/>
      <rect class="cls-1" x="97" y="122.5" width="5" height="5" transform="translate(199 250) rotate(180)"/>
      <rect class="cls-1" x="92" y="117.5" width="5" height="5" transform="translate(189 240) rotate(180)"/>
      <rect class="cls-1" x="87" y="112.5" width="5" height="5" transform="translate(179 230) rotate(180)"/>
      <rect class="cls-1" x="82" y="107.5" width="5" height="5" transform="translate(169 220) rotate(180)"/>
      <rect class="cls-1" x="22" y="47.5" width="5" height="5" transform="translate(49 100) rotate(180)"/>
      <rect class="cls-1" x="27" y="52.5" width="5" height="5" transform="translate(59 110) rotate(180)"/>
      <rect class="cls-1" x="17" y="42.5" width="5" height="5" transform="translate(39 90) rotate(180)"/>
      <rect class="cls-1" x="12" y="37.5" width="5" height="5" transform="translate(29 80) rotate(180)"/>
      <rect class="cls-1" x="7" y="32.5" width="5" height="5" transform="translate(19 70) rotate(180)"/>
      <path class="cls-2" d="M100,32.5c1.08,0,2,.92,2,2v95c0,1.08-.92,2-2,2H5c-1.08,0-2-.92-2-2V34.5c0-1.08.92-2,2-2h95M100,29.5H5c-2.75,0-5,2.25-5,5v95c0,2.75,2.25,5,5,5h95c2.75,0,5-2.25,5-5V34.5c0-2.75-2.25-5-5-5h0Z"/>
      <rect class="cls-2" x="64.93" y="4.43" width="48.14" height="78.15" rx="2.77" ry="2.77" transform="translate(-4.69 75.67) rotate(-45)"/>
      <path class="cls-3" d="M46.32,41.45c-2.43,2.43-2.43,6.4,0,8.83l36.9,36.9c2.43,2.43,6.4,2.43,8.83,0l3.45-3.45-45.72-45.73-3.45,3.45h0Z"/>
    </g>
  </g>
</svg>