<?xml version="1.0" encoding="utf-8"?>
<!-- Generator: Adobe Illustrator 28.3.0, SVG Export Plug-In . SVG Version: 6.00 Build 0)  -->
<svg version="1.1" id="Layer_2_00000177459359646871175740000015181525329344732859_"
	 xmlns="http://www.w3.org/2000/svg" xmlns:xlink="http://www.w3.org/1999/xlink" x="0px" y="0px" viewBox="0 0 105 105"
	 style="enable-background:new 0 0 105 105;" xml:space="preserve">
<style type="text/css">
	.st0{fill:#CCCCCC;}
</style>
<rect x="32" y="8" class="st0" width="5" height="5"/>
<rect x="37" y="13" class="st0" width="5" height="5"/>
<rect x="27" y="13" class="st0" width="5" height="5"/>
<rect x="37" y="23" class="st0" width="5" height="5"/>
<rect x="42" y="28" class="st0" width="5" height="5"/>
<rect x="42" y="18" class="st0" width="5" height="5"/>
<rect x="52" y="8" class="st0" width="5" height="5"/>
<rect x="47" y="13" class="st0" width="5" height="5"/>
<rect x="47" y="23" class="st0" width="5" height="5"/>
<rect x="52" y="28" class="st0" width="5" height="5"/>
<rect x="52" y="18" class="st0" width="5" height="5"/>
<rect x="42" y="8" class="st0" width="5" height="5"/>
<rect x="47" y="33" class="st0" width="5" height="5"/>
<rect x="52" y="38" class="st0" width="5" height="5"/>
<rect x="27" y="3" class="st0" width="5" height="5"/>
<rect x="47" y="3" class="st0" width="5" height="5"/>
<rect x="37" y="3" class="st0" width="5" height="5"/>
<rect x="57" y="3" class="st0" width="5" height="5"/>
<rect x="62" y="8" class="st0" width="5" height="5"/>
<rect x="67" y="13" class="st0" width="5" height="5"/>
<rect x="67" y="3" class="st0" width="5" height="5"/>
<rect x="57" y="13" class="st0" width="5" height="5"/>
<rect x="62" y="18" class="st0" width="5" height="5"/>
<rect x="67" y="23" class="st0" width="5" height="5"/>
<rect x="72" y="28" class="st0" width="5" height="5"/>
<rect x="72" y="18" class="st0" width="5" height="5"/>
<rect x="62" y="28" class="st0" width="5" height="5"/>
<rect x="77" y="3" class="st0" width="5" height="5"/>
<rect x="82" y="8" class="st0" width="5" height="5"/>
<rect x="77" y="13" class="st0" width="5" height="5"/>
<rect x="77" y="23" class="st0" width="5" height="5"/>
<rect x="82" y="28" class="st0" width="5" height="5"/>
<rect x="82" y="18" class="st0" width="5" height="5"/>
<rect x="72" y="8" class="st0" width="5" height="5"/>
<rect x="57" y="23" class="st0" width="5" height="5"/>
<rect x="67" y="33" class="st0" width="5" height="5"/>
<rect x="57" y="33" class="st0" width="5" height="5"/>
<rect x="77" y="33" class="st0" width="5" height="5"/>
<rect x="62" y="38" class="st0" width="5" height="5"/>
<rect x="67" y="43" class="st0" width="5" height="5"/>
<rect x="57" y="43" class="st0" width="5" height="5"/>
<rect x="62" y="48" class="st0" width="5" height="5"/>
<rect x="67" y="53" class="st0" width="5" height="5"/>
<rect x="72" y="58" class="st0" width="5" height="5"/>
<rect x="72" y="48" class="st0" width="5" height="5"/>
<rect x="82" y="38" class="st0" width="5" height="5"/>
<rect x="77" y="43" class="st0" width="5" height="5"/>
<rect x="77" y="53" class="st0" width="5" height="5"/>
<rect x="82" y="58" class="st0" width="5" height="5"/>
<rect x="82" y="48" class="st0" width="5" height="5"/>
<rect x="72" y="38" class="st0" width="5" height="5"/>
<rect x="77" y="63" class="st0" width="5" height="5"/>
<rect x="82" y="68" class="st0" width="5" height="5"/>
<rect x="92" y="8" class="st0" width="5" height="5"/>
<rect x="97" y="13" class="st0" width="5" height="5"/>
<rect x="87" y="13" class="st0" width="5" height="5"/>
<rect x="92" y="18" class="st0" width="5" height="5"/>
<rect x="97" y="23" class="st0" width="5" height="5"/>
<rect x="92" y="28" class="st0" width="5" height="5"/>
<rect x="87" y="23" class="st0" width="5" height="5"/>
<rect x="97" y="33" class="st0" width="5" height="5"/>
<rect x="87" y="33" class="st0" width="5" height="5"/>
<rect x="92" y="38" class="st0" width="5" height="5"/>
<rect x="97" y="43" class="st0" width="5" height="5"/>
<rect x="87" y="43" class="st0" width="5" height="5"/>
<rect x="92" y="48" class="st0" width="5" height="5"/>
<rect x="97" y="53" class="st0" width="5" height="5"/>
<rect x="92" y="58" class="st0" width="5" height="5"/>
<rect x="87" y="53" class="st0" width="5" height="5"/>
<rect x="97" y="63" class="st0" width="5" height="5"/>
<rect x="87" y="63" class="st0" width="5" height="5"/>
<rect x="92" y="68" class="st0" width="5" height="5"/>
<rect x="87" y="3" class="st0" width="5" height="5"/>
<rect x="97" y="3" class="st0" width="5" height="5"/>
<rect x="32" y="18" class="st0" width="5" height="5"/>
<rect x="22" y="8" class="st0" width="5" height="5"/>
<rect x="17" y="3" class="st0" width="5" height="5"/>
<rect x="92" y="78" class="st0" width="5" height="5"/>
<rect x="87" y="73" class="st0" width="5" height="5"/>
<rect x="97" y="73" class="st0" width="5" height="5"/>
<rect x="97" y="83" class="st0" width="5" height="5"/>
<rect x="52" y="48" class="st0" width="5" height="5"/>
<rect x="47" y="43" class="st0" width="5" height="5"/>
<rect x="42" y="38" class="st0" width="5" height="5"/>
<rect x="37" y="33" class="st0" width="5" height="5"/>
<rect x="32" y="28" class="st0" width="5" height="5"/>
<rect x="77" y="73" class="st0" width="5" height="5"/>
<rect x="72" y="68" class="st0" width="5" height="5"/>
<rect x="67" y="63" class="st0" width="5" height="5"/>
<rect x="62" y="58" class="st0" width="5" height="5"/>
<rect x="57" y="53" class="st0" width="5" height="5"/>
<rect x="97" y="93" class="st0" width="5" height="5"/>
<rect x="92" y="88" class="st0" width="5" height="5"/>
<rect x="87" y="83" class="st0" width="5" height="5"/>
<rect x="82" y="78" class="st0" width="5" height="5"/>
<rect x="22" y="18" class="st0" width="5" height="5"/>
<rect x="27" y="23" class="st0" width="5" height="5"/>
<rect x="17" y="13" class="st0" width="5" height="5"/>
<rect x="12" y="8" class="st0" width="5" height="5"/>
<rect x="7" y="3" class="st0" width="5" height="5"/>
<path d="M100,3c1.1,0,2,0.9,2,2v95c0,1.1-0.9,2-2,2H5c-1.1,0-2-0.9-2-2V5c0-1.1,0.9-2,2-2H100 M100,0H5C2.2,0,0,2.2,0,5v95
	c0,2.8,2.2,5,5,5h95c2.8,0,5-2.2,5-5V5C105,2.2,102.8,0,100,0L100,0z"/>
</svg>
