<?xml version="1.0" encoding="UTF-8"?>
<svg id="Layer_2" data-name="Layer 2" xmlns="http://www.w3.org/2000/svg" viewBox="0 0 39 76.53">
  <defs>
    <style>
      .cls-1 {
        fill: #000;
      }

      .cls-1, .cls-2 {
        stroke-width: 0px;
      }

      .cls-2 {
        fill: #fff;
      }

      .cls-3 {
        fill: none;
        stroke: #000;
        stroke-miterlimit: 10;
        stroke-width: 3px;
      }
    </style>
  </defs>
  <g id="Layer_1-2" data-name="Layer 1">
    <g>
      <g>
        <path class="cls-2" d="M8.06,75.03c-3.62,0-6.56-2.95-6.56-6.57V8.07c0-3.62,2.94-6.57,6.56-6.57.9,0,1.78.19,2.62.56l22.88,9.97c2.39,1.04,3.94,3.4,3.94,6.01v40.44c0,2.61-1.55,4.97-3.94,6.01l-22.88,9.97c-.85.37-1.73.55-2.62.55Z"/>
        <path class="cls-1" d="M8.06,3h0c.69,0,1.37.14,2.03.43l22.88,9.97c1.85.8,3.04,2.63,3.04,4.64v40.44c0,2.01-1.19,3.83-3.04,4.64l-22.88,9.97c-.66.29-1.34.43-2.03.43-2.43,0-5.06-1.94-5.06-5.07V8.07c0-3.13,2.62-5.07,5.06-5.07M8.06,0C3.81,0,0,3.43,0,8.07v60.39C0,73.1,3.81,76.53,8.06,76.53c1.06,0,2.16-.22,3.22-.68l22.88-9.97c2.94-1.28,4.84-4.18,4.84-7.39V18.04c0-3.21-1.9-6.11-4.84-7.39L11.28.68C10.21.22,9.12,0,8.06,0h0Z"/>
      </g>
      <line class="cls-3" y1="38.26" x2="39" y2="38.26"/>
      <line class="cls-3" y1="54.76" x2="39" y2="54.76"/>
      <line class="cls-3" y1="21.76" x2="39" y2="21.76"/>
    </g>
  </g>
</svg>