<?xml version="1.0" encoding="utf-8"?>
<!-- Generator: Adobe Illustrator 28.3.0, SVG Export Plug-In . SVG Version: 6.00 Build 0)  -->
<svg version="1.1" id="Layer_1" xmlns="http://www.w3.org/2000/svg" xmlns:xlink="http://www.w3.org/1999/xlink" x="0px" y="0px"
	 viewBox="0 0 99 99" style="enable-background:new 0 0 99 99;" xml:space="preserve">
<path d="M97.8,41.8L57.2,1.2c-1.6-1.6-4.3-1.6-6,0L5.4,47.1c-1.6,1.6-1.6,4.3,0,6l3.1,3.1l-5.3,5.3c-4.3,4.3-4.3,11.3,0,15.6
	l18.7,18.7c2.2,2.2,5,3.2,7.8,3.2c2.8,0,5.7-1.1,7.8-3.2l5.3-5.3l3.1,3.1c1.6,1.6,4.3,1.6,6,0l45.9-45.9
	C99.4,46.1,99.4,43.4,97.8,41.8z M35.4,93.7c-3.1,3.1-8.2,3.1-11.4,0L5.3,75c-3.1-3.1-3.1-8-0.2-11.1l4.5-4.5l30.1,30.1L35.4,93.7z"
	/>
</svg>
