<?xml version="1.0" encoding="utf-8"?>
<!-- Generator: Adobe Illustrator 28.3.0, SVG Export Plug-In . SVG Version: 6.00 Build 0)  -->
<svg version="1.1" id="Layer_1" xmlns="http://www.w3.org/2000/svg" xmlns:xlink="http://www.w3.org/1999/xlink" x="0px" y="0px"
	 viewBox="0 0 113.3 112.6" style="enable-background:new 0 0 113.3 112.6;" xml:space="preserve">
<style type="text/css">
	.st0{fill:#CCCCCC;}
</style>
<rect x="70" y="92.6" class="st0" width="5" height="5"/>
<rect x="65" y="87.6" class="st0" width="5" height="5"/>
<rect x="75" y="87.6" class="st0" width="5" height="5"/>
<rect x="65" y="77.6" class="st0" width="5" height="5"/>
<rect x="60" y="72.6" class="st0" width="5" height="5"/>
<rect x="60" y="82.6" class="st0" width="5" height="5"/>
<rect x="50" y="92.6" class="st0" width="5" height="5"/>
<rect x="55" y="87.6" class="st0" width="5" height="5"/>
<rect x="55" y="77.6" class="st0" width="5" height="5"/>
<rect x="50" y="72.6" class="st0" width="5" height="5"/>
<rect x="50" y="82.6" class="st0" width="5" height="5"/>
<rect x="60" y="92.6" class="st0" width="5" height="5"/>
<rect x="55" y="67.6" class="st0" width="5" height="5"/>
<rect x="50" y="62.6" class="st0" width="5" height="5"/>
<rect x="75" y="97.6" class="st0" width="5" height="5"/>
<rect x="55" y="97.6" class="st0" width="5" height="5"/>
<rect x="65" y="97.6" class="st0" width="5" height="5"/>
<rect x="45" y="97.6" class="st0" width="5" height="5"/>
<rect x="40" y="92.6" class="st0" width="5" height="5"/>
<rect x="35" y="87.6" class="st0" width="5" height="5"/>
<rect x="35" y="97.6" class="st0" width="5" height="5"/>
<rect x="45" y="87.6" class="st0" width="5" height="5"/>
<rect x="40" y="82.6" class="st0" width="5" height="5"/>
<rect x="35" y="77.6" class="st0" width="5" height="5"/>
<rect x="30" y="72.6" class="st0" width="5" height="5"/>
<rect x="30" y="82.6" class="st0" width="5" height="5"/>
<rect x="40" y="72.6" class="st0" width="5" height="5"/>
<rect x="25" y="97.6" class="st0" width="5" height="5"/>
<rect x="20" y="92.6" class="st0" width="5" height="5"/>
<rect x="25" y="87.6" class="st0" width="5" height="5"/>
<rect x="25" y="77.6" class="st0" width="5" height="5"/>
<rect x="20" y="72.6" class="st0" width="5" height="5"/>
<rect x="20" y="82.6" class="st0" width="5" height="5"/>
<rect x="30" y="92.6" class="st0" width="5" height="5"/>
<rect x="45" y="77.6" class="st0" width="5" height="5"/>
<rect x="35" y="67.6" class="st0" width="5" height="5"/>
<rect x="45" y="67.6" class="st0" width="5" height="5"/>
<rect x="25" y="67.6" class="st0" width="5" height="5"/>
<rect x="40" y="62.6" class="st0" width="5" height="5"/>
<rect x="35" y="57.6" class="st0" width="5" height="5"/>
<rect x="45" y="57.6" class="st0" width="5" height="5"/>
<rect x="40" y="52.6" class="st0" width="5" height="5"/>
<rect x="35" y="47.6" class="st0" width="5" height="5"/>
<rect x="30" y="42.6" class="st0" width="5" height="5"/>
<rect x="30" y="52.6" class="st0" width="5" height="5"/>
<rect x="20" y="62.6" class="st0" width="5" height="5"/>
<rect x="25" y="57.6" class="st0" width="5" height="5"/>
<rect x="25" y="47.6" class="st0" width="5" height="5"/>
<rect x="20" y="42.6" class="st0" width="5" height="5"/>
<rect x="20" y="52.6" class="st0" width="5" height="5"/>
<rect x="30" y="62.6" class="st0" width="5" height="5"/>
<rect x="25" y="37.6" class="st0" width="5" height="5"/>
<rect x="20" y="32.6" class="st0" width="5" height="5"/>
<rect x="10" y="92.6" class="st0" width="5" height="5"/>
<rect x="5" y="87.6" class="st0" width="5" height="5"/>
<rect x="15" y="87.6" class="st0" width="5" height="5"/>
<rect x="10" y="82.6" class="st0" width="5" height="5"/>
<rect x="5" y="77.6" class="st0" width="5" height="5"/>
<rect x="10" y="72.6" class="st0" width="5" height="5"/>
<rect x="15" y="77.6" class="st0" width="5" height="5"/>
<rect x="5" y="67.6" class="st0" width="5" height="5"/>
<rect x="15" y="67.6" class="st0" width="5" height="5"/>
<rect x="10" y="62.6" class="st0" width="5" height="5"/>
<rect x="5" y="57.6" class="st0" width="5" height="5"/>
<rect x="15" y="57.6" class="st0" width="5" height="5"/>
<rect x="10" y="52.6" class="st0" width="5" height="5"/>
<rect x="5" y="47.6" class="st0" width="5" height="5"/>
<rect x="10" y="42.6" class="st0" width="5" height="5"/>
<rect x="15" y="47.6" class="st0" width="5" height="5"/>
<rect x="5" y="37.6" class="st0" width="5" height="5"/>
<rect x="15" y="37.6" class="st0" width="5" height="5"/>
<rect x="10" y="32.6" class="st0" width="5" height="5"/>
<rect x="15" y="97.6" class="st0" width="5" height="5"/>
<rect x="5" y="97.6" class="st0" width="5" height="5"/>
<rect x="70" y="82.6" class="st0" width="5" height="5"/>
<rect x="80" y="92.6" class="st0" width="5" height="5"/>
<rect x="85" y="97.6" class="st0" width="5" height="5"/>
<rect x="10" y="22.6" class="st0" width="5" height="5"/>
<rect x="15" y="27.6" class="st0" width="5" height="5"/>
<rect x="5" y="27.6" class="st0" width="5" height="5"/>
<rect x="5" y="17.6" class="st0" width="5" height="5"/>
<rect x="50" y="52.6" class="st0" width="5" height="5"/>
<rect x="55" y="57.6" class="st0" width="5" height="5"/>
<rect x="60" y="62.6" class="st0" width="5" height="5"/>
<rect x="65" y="67.6" class="st0" width="5" height="5"/>
<rect x="70" y="72.6" class="st0" width="5" height="5"/>
<rect x="25" y="27.6" class="st0" width="5" height="5"/>
<rect x="30" y="32.6" class="st0" width="5" height="5"/>
<rect x="35" y="37.6" class="st0" width="5" height="5"/>
<rect x="40" y="42.6" class="st0" width="5" height="5"/>
<rect x="45" y="47.6" class="st0" width="5" height="5"/>
<rect x="5" y="7.6" class="st0" width="5" height="5"/>
<rect x="10" y="12.6" class="st0" width="5" height="5"/>
<rect x="15" y="17.6" class="st0" width="5" height="5"/>
<rect x="20" y="22.6" class="st0" width="5" height="5"/>
<rect x="80" y="82.6" class="st0" width="5" height="5"/>
<rect x="75" y="77.6" class="st0" width="5" height="5"/>
<rect x="85" y="87.6" class="st0" width="5" height="5"/>
<rect x="90" y="92.6" class="st0" width="5" height="5"/>
<rect x="95" y="97.6" class="st0" width="5" height="5"/>
<rect x="30" y="12.6" class="st0" width="5" height="5"/>
<rect x="35" y="17.6" class="st0" width="5" height="5"/>
<rect x="25" y="17.6" class="st0" width="5" height="5"/>
<rect x="35" y="27.6" class="st0" width="5" height="5"/>
<rect x="40" y="32.6" class="st0" width="5" height="5"/>
<rect x="40" y="22.6" class="st0" width="5" height="5"/>
<rect x="50" y="12.6" class="st0" width="5" height="5"/>
<rect x="45" y="17.6" class="st0" width="5" height="5"/>
<rect x="45" y="27.6" class="st0" width="5" height="5"/>
<rect x="50" y="32.6" class="st0" width="5" height="5"/>
<rect x="50" y="22.6" class="st0" width="5" height="5"/>
<rect x="40" y="12.6" class="st0" width="5" height="5"/>
<rect x="45" y="37.6" class="st0" width="5" height="5"/>
<rect x="50" y="42.6" class="st0" width="5" height="5"/>
<rect x="25" y="7.6" class="st0" width="5" height="5"/>
<rect x="45" y="7.6" class="st0" width="5" height="5"/>
<rect x="35" y="7.6" class="st0" width="5" height="5"/>
<rect x="55" y="7.6" class="st0" width="5" height="5"/>
<rect x="60" y="12.6" class="st0" width="5" height="5"/>
<rect x="65" y="17.6" class="st0" width="5" height="5"/>
<rect x="65" y="7.6" class="st0" width="5" height="5"/>
<rect x="55" y="17.6" class="st0" width="5" height="5"/>
<rect x="60" y="22.6" class="st0" width="5" height="5"/>
<rect x="65" y="27.6" class="st0" width="5" height="5"/>
<rect x="70" y="32.6" class="st0" width="5" height="5"/>
<rect x="70" y="22.6" class="st0" width="5" height="5"/>
<rect x="60" y="32.6" class="st0" width="5" height="5"/>
<rect x="75" y="7.6" class="st0" width="5" height="5"/>
<rect x="80" y="12.6" class="st0" width="5" height="5"/>
<rect x="75" y="17.6" class="st0" width="5" height="5"/>
<rect x="75" y="27.6" class="st0" width="5" height="5"/>
<rect x="80" y="32.6" class="st0" width="5" height="5"/>
<rect x="80" y="22.6" class="st0" width="5" height="5"/>
<rect x="70" y="12.6" class="st0" width="5" height="5"/>
<rect x="55" y="27.6" class="st0" width="5" height="5"/>
<rect x="65" y="37.6" class="st0" width="5" height="5"/>
<rect x="55" y="37.6" class="st0" width="5" height="5"/>
<rect x="75" y="37.6" class="st0" width="5" height="5"/>
<rect x="60" y="42.6" class="st0" width="5" height="5"/>
<rect x="65" y="47.6" class="st0" width="5" height="5"/>
<rect x="55" y="47.6" class="st0" width="5" height="5"/>
<rect x="60" y="52.6" class="st0" width="5" height="5"/>
<rect x="65" y="57.6" class="st0" width="5" height="5"/>
<rect x="70" y="62.6" class="st0" width="5" height="5"/>
<rect x="70" y="52.6" class="st0" width="5" height="5"/>
<rect x="80" y="42.6" class="st0" width="5" height="5"/>
<rect x="75" y="47.6" class="st0" width="5" height="5"/>
<rect x="75" y="57.6" class="st0" width="5" height="5"/>
<rect x="80" y="62.6" class="st0" width="5" height="5"/>
<rect x="80" y="52.6" class="st0" width="5" height="5"/>
<rect x="70" y="42.6" class="st0" width="5" height="5"/>
<rect x="75" y="67.6" class="st0" width="5" height="5"/>
<rect x="80" y="72.6" class="st0" width="5" height="5"/>
<rect x="90" y="12.6" class="st0" width="5" height="5"/>
<rect x="95" y="17.6" class="st0" width="5" height="5"/>
<rect x="85" y="17.6" class="st0" width="5" height="5"/>
<rect x="90" y="22.6" class="st0" width="5" height="5"/>
<rect x="95" y="27.6" class="st0" width="5" height="5"/>
<rect x="90" y="32.6" class="st0" width="5" height="5"/>
<rect x="85" y="27.6" class="st0" width="5" height="5"/>
<rect x="95" y="37.6" class="st0" width="5" height="5"/>
<rect x="85" y="37.6" class="st0" width="5" height="5"/>
<rect x="90" y="42.6" class="st0" width="5" height="5"/>
<rect x="95" y="47.6" class="st0" width="5" height="5"/>
<rect x="85" y="47.6" class="st0" width="5" height="5"/>
<rect x="90" y="52.6" class="st0" width="5" height="5"/>
<rect x="95" y="57.6" class="st0" width="5" height="5"/>
<rect x="90" y="62.6" class="st0" width="5" height="5"/>
<rect x="85" y="57.6" class="st0" width="5" height="5"/>
<rect x="95" y="67.6" class="st0" width="5" height="5"/>
<rect x="85" y="67.6" class="st0" width="5" height="5"/>
<rect x="90" y="72.6" class="st0" width="5" height="5"/>
<rect x="85" y="7.6" class="st0" width="5" height="5"/>
<rect x="95" y="7.6" class="st0" width="5" height="5"/>
<rect x="30" y="22.6" class="st0" width="5" height="5"/>
<rect x="20" y="12.6" class="st0" width="5" height="5"/>
<rect x="15" y="7.6" class="st0" width="5" height="5"/>
<rect x="90" y="82.6" class="st0" width="5" height="5"/>
<rect x="85" y="77.6" class="st0" width="5" height="5"/>
<rect x="95" y="77.6" class="st0" width="5" height="5"/>
<rect x="95" y="87.6" class="st0" width="5" height="5"/>
<rect x="50" y="52.6" class="st0" width="5" height="5"/>
<rect x="45" y="47.6" class="st0" width="5" height="5"/>
<rect x="40" y="42.6" class="st0" width="5" height="5"/>
<rect x="35" y="37.6" class="st0" width="5" height="5"/>
<rect x="30" y="32.6" class="st0" width="5" height="5"/>
<rect x="75" y="77.6" class="st0" width="5" height="5"/>
<rect x="70" y="72.6" class="st0" width="5" height="5"/>
<rect x="65" y="67.6" class="st0" width="5" height="5"/>
<rect x="60" y="62.6" class="st0" width="5" height="5"/>
<rect x="55" y="57.6" class="st0" width="5" height="5"/>
<rect x="95" y="97.6" class="st0" width="5" height="5"/>
<rect x="90" y="92.6" class="st0" width="5" height="5"/>
<rect x="85" y="87.6" class="st0" width="5" height="5"/>
<rect x="80" y="82.6" class="st0" width="5" height="5"/>
<rect x="20" y="22.6" class="st0" width="5" height="5"/>
<rect x="25" y="27.6" class="st0" width="5" height="5"/>
<rect x="15" y="17.6" class="st0" width="5" height="5"/>
<rect x="10" y="12.6" class="st0" width="5" height="5"/>
<rect x="5" y="7.6" class="st0" width="5" height="5"/>
<rect y="92.6" class="st0" width="5" height="5"/>
<rect y="82.6" class="st0" width="5" height="5"/>
<rect y="72.6" class="st0" width="5" height="5"/>
<rect y="62.6" class="st0" width="5" height="5"/>
<rect y="52.6" class="st0" width="5" height="5"/>
<rect y="42.6" class="st0" width="5" height="5"/>
<rect y="102.6" class="st0" width="5" height="5"/>
<rect y="32.6" class="st0" width="5" height="5"/>
<rect y="22.6" class="st0" width="5" height="5"/>
<rect y="12.6" class="st0" width="5" height="5"/>
<rect y="12.6" class="st0" width="5" height="5"/>
<rect x="70" y="102.6" class="st0" width="5" height="5"/>
<rect x="50" y="102.6" class="st0" width="5" height="5"/>
<rect x="60" y="102.6" class="st0" width="5" height="5"/>
<rect x="40" y="102.6" class="st0" width="5" height="5"/>
<rect x="30" y="102.6" class="st0" width="5" height="5"/>
<rect x="20" y="102.6" class="st0" width="5" height="5"/>
<rect x="10" y="102.6" class="st0" width="5" height="5"/>
<rect x="80" y="102.6" class="st0" width="5" height="5"/>
<rect x="90" y="102.6" class="st0" width="5" height="5"/>
<rect x="100" y="92.6" class="st0" width="5" height="5"/>
<rect x="100" y="82.6" class="st0" width="5" height="5"/>
<rect x="100" y="72.6" class="st0" width="5" height="5"/>
<rect x="100" y="62.6" class="st0" width="5" height="5"/>
<rect x="100" y="52.6" class="st0" width="5" height="5"/>
<rect x="100" y="42.6" class="st0" width="5" height="5"/>
<rect x="100" y="102.6" class="st0" width="5" height="5"/>
<rect x="100" y="32.6" class="st0" width="5" height="5"/>
<rect x="100" y="22.6" class="st0" width="5" height="5"/>
<rect x="100" y="12.6" class="st0" width="5" height="5"/>
<rect x="100" y="12.6" class="st0" width="5" height="5"/>
<rect x="5" y="107.6" class="st0" width="5" height="5"/>
<rect x="25" y="107.6" class="st0" width="5" height="5"/>
<rect x="45" y="107.6" class="st0" width="5" height="5"/>
<rect x="35" y="107.6" class="st0" width="5" height="5"/>
<rect x="55" y="107.6" class="st0" width="5" height="5"/>
<rect x="65" y="107.6" class="st0" width="5" height="5"/>
<rect x="75" y="107.6" class="st0" width="5" height="5"/>
<rect x="85" y="107.6" class="st0" width="5" height="5"/>
<rect x="95" y="107.6" class="st0" width="5" height="5"/>
<rect x="15" y="107.6" class="st0" width="5" height="5"/>
<rect x="5" y="107.6" class="st0" width="5" height="5"/>
<path d="M100,10.6c1.1,0,2,0.9,2,2v95c0,1.1-0.9,2-2,2H5c-1.1,0-2-0.9-2-2v-95c0-1.1,0.9-2,2-2H100 M100,7.6H5c-2.8,0-5,2.2-5,5v95
	c0,2.8,2.2,5,5,5h95c2.8,0,5-2.2,5-5v-95C105,9.9,102.8,7.6,100,7.6L100,7.6z"/>
<path d="M113.3,5.5c0-1.6-0.7-3.2-1.9-4.2c-2.2-1.9-5.7-1.8-7.9,0.3L103.2,2l-15,15.4c-6.3-2.4-13-4.1-19.6-5.2
	c-2.2-0.4-3.2,3.1-0.9,3.4c6.1,1,12,2.5,17.8,4.6L70,36c-6.4-0.9-12.8-2.2-19.3-2.7c-6.9-0.5-15.8-0.5-20.4,5.5
	c-3.4,4.4-3.6,10.8-2.3,16C29.2,60,32,65.6,37,69c1.4,1.2,4.8,2.7,8.8,3.4c3,0.5,11.9,1.9,16.9-4.4c1.3-1.7,2.1-3.4,2.5-5.2
	c0,0,0-0.1,0-0.1c0.1-0.2,0.1-0.5,0.1-0.7c0-0.1,0-0.2,0.1-0.3c0-0.2,0.1-0.3,0.1-0.5c0-0.2,0-0.3,0.1-0.5c0-0.1,0-0.2,0-0.4
	c0-0.2,0-0.3,0-0.5c0-0.1,0-0.2,0-0.3c0-0.2,0-0.3,0-0.5c0-0.1,0-0.2,0-0.4c0-0.1,0-0.2,0-0.3c0-0.2,0-0.3,0-0.5c0,0,0,0,0-0.1
	c-0.1-0.9-0.2-1.6-0.3-2.2c-0.4-1.1-1.2-2.7-2.8-4c-1.5-1.2-3.2-1.7-4.5-1.8c-0.8-0.1-1.4-0.1-1.8,0c-4.3,0.4-7.4,1.7-9.2,4
	c-1.3,1.6-1.7,3.3-2.1,5c-0.5,2.1-1,4.3-3.2,6.3c-0.8,0.7-1.6,1.2-2.4,1.6c-5.4-4.1-6.8-8-8-12.8c-1-4.1-1.1-9.6,1.7-13.1
	c2-2.5,5.5-3.6,8.6-4c4-0.5,8.1-0.2,12.1,0.3c4.4,0.5,8.8,1.3,13.1,2l-9.2,9.5c0.2,0,0.3,0,0.5,0c1.5,0.2,3.4,0.7,5.1,2.1
	c1.5,1.2,2.3,2.5,2.9,3.7c0.3-0.3,0.7-0.7,1.2-1.2c1.2-1.2,3-3,5.2-5.1c2.2-2.2,4.9-4.8,7.7-7.5c7.4,0.1,19.1-1.9,19.4-11.3
	c0.1-2.3-0.7-4.2-2-5.8c7.6-7.4,13.6-13.3,13.6-13.3C112.7,8.9,113.3,7.3,113.3,5.5L113.3,5.5z M96.2,28.9c0.1,4.3-4.6,6.6-8.2,7.3
	c-1.3,0.3-2.6,0.5-3.9,0.6c1.4-1.4,2.8-2.8,4.3-4.2c2.3-2.3,4.6-4.5,6.8-6.7C95.8,26.7,96.2,27.7,96.2,28.9L96.2,28.9z"/>
</svg>
