<?xml version="1.0" encoding="utf-8"?>
<!-- Generator: Adobe Illustrator 28.3.0, SVG Export Plug-In . SVG Version: 6.00 Build 0)  -->
<svg version="1.1" id="Layer_1" xmlns="http://www.w3.org/2000/svg" xmlns:xlink="http://www.w3.org/1999/xlink" x="0px" y="0px"
	 viewBox="0 0 88.8 99.9" style="enable-background:new 0 0 88.8 99.9;" xml:space="preserve">
<path d="M36.2,81c0-0.2,0-0.4,0-0.6c0-0.1,0-0.3,0-0.4c0-0.2,0-0.4-0.1-0.6c0-0.1,0-0.3,0-0.4c0-0.1,0-0.2,0-0.4
	c0-0.2-0.1-0.4-0.1-0.6c0,0,0-0.1,0-0.1c-0.2-1.1-0.4-2-0.6-2.6c-0.6-1.3-1.8-3.2-3.9-4.5c-2-1.3-4.1-1.6-5.7-1.6
	c-1,0-1.8,0.1-2.3,0.2c-5.2,1-8.8,3.1-10.7,6c-1.4,2.1-1.6,4.2-1.9,6.4c-0.3,2.7-0.6,5.4-3,8.1c-1.6,1.8-3.4,2.7-4.7,3.3
	c-0.8,0.4-1.5,0.7-1.5,1c0,1.3,5.5,3.7,12,4c3.7,0.2,14.8,0.7,20.1-7.6c1.4-2.2,2.1-4.5,2.3-6.7c0,0,0-0.1,0-0.1
	c0-0.3,0.1-0.6,0.1-0.8c0-0.1,0-0.3,0-0.4c0-0.2,0-0.4,0-0.6c0-0.2,0-0.4,0-0.6C36.2,81.3,36.2,81.2,36.2,81z"/>
<path d="M74.6,4.2l-0.3,0.4L25,67.6c0.2,0,0.4,0,0.6,0c1.8,0,4.2,0.4,6.5,1.8c1.9,1.2,3.2,2.8,4,4.1c0.3-0.4,0.8-1,1.4-1.7
	c1.4-1.7,3.3-4.1,5.7-6.9c4.7-5.7,10.9-13.4,17.2-21c12.5-15.2,25-30.5,25-30.5c1.4-1.6,2-3.8,1.7-5.9c-0.3-2-1.3-3.8-2.9-4.9
	C81.3,0.7,77.1,1.4,74.6,4.2z"/>
</svg>
